<?xml version="1.0" encoding="UTF-8"?>
<svg xmlns="http://www.w3.org/2000/svg" xmlns:xlink="http://www.w3.org/1999/xlink" width="96px" height="59px" viewBox="0 0 96 59" version="1.1">
<defs>
<clipPath id="clip1">
  <path d="M 0 0 L 96 0 L 96 57.925781 L 0 57.925781 Z M 0 0 "/>
</clipPath>
</defs>
<g id="surface1">
<g clip-path="url(#clip1)" clip-rule="nonzero">
<path style=" stroke:none;fill-rule:evenodd;fill:rgb(21.960784%,74.117647%,97.254902%);fill-opacity:1;" d="M 48 0 C 35.199219 0 27.199219 6.4375 24 19.308594 C 28.800781 12.871094 34.398438 10.460938 40.800781 12.066406 C 44.453125 12.984375 47.0625 15.652344 49.949219 18.597656 C 54.65625 23.402344 60.101562 28.964844 72 28.964844 C 84.800781 28.964844 92.800781 22.527344 96 9.65625 C 91.199219 16.089844 85.601562 18.503906 79.199219 16.894531 C 75.546875 15.976562 72.9375 13.3125 70.050781 10.363281 C 65.34375 5.558594 59.898438 0 48 0 Z M 24 28.964844 C 11.199219 28.964844 3.199219 35.398438 0 48.273438 C 4.800781 41.835938 10.398438 39.421875 16.800781 41.03125 C 20.453125 41.949219 23.0625 44.613281 25.949219 47.5625 C 30.65625 52.367188 36.101562 57.925781 48 57.925781 C 60.800781 57.925781 68.800781 51.492188 72 38.617188 C 67.199219 45.054688 61.601562 47.46875 55.199219 45.859375 C 51.546875 44.941406 48.9375 42.277344 46.050781 39.328125 C 41.34375 34.523438 35.898438 28.964844 24 28.964844 Z M 24 28.964844 "/>
</g>
</g>
</svg>
